<svg id="Calque_1" data-name="Calque 1" xmlns="http://www.w3.org/2000/svg" viewBox="0 0 16 16"><path d="M649,501.26a11,11,0,0,0-3.47,1.58,13.61,13.61,0,0,0-4.87,5.29c-.11.21-.11.21-.09,0s0-.23,0-.29-.18-.06-.34.15a5.72,5.72,0,0,0-.61,1.25,4.88,4.88,0,0,1-.31.71s0,0,0-.24a1.69,1.69,0,0,0,0-.52c0-.08,0-.09-.07-.12s-.24.06-.47.54c-.13.26-.18.37-.43,1s-.28.69-.3.68a.58.58,0,0,1,0-.18c0-.18,0-.25-.08-.29s-.13,0-.22.1a6.86,6.86,0,0,0-.58,1.42c-.06.18-.16.43-.21.55-.22.47-.26.57-.3.68l0,.12-.47.55c-.91,1.07-1.61,1.93-2.16,2.66l-.1.13.07.11a.29.29,0,0,0,.08.11,2.93,2.93,0,0,0,.42-.29,25.14,25.14,0,0,0,2.1-2l.24-.25h.11a1.26,1.26,0,0,0,.46-.15l.45-.17a3.22,3.22,0,0,0,.43-.15c.2-.08.28-.17.28-.3a.15.15,0,0,0,0-.11s-.05-.06,0-.07l.38-.19c.48-.23.62-.3.75-.38a.66.66,0,0,0,.25-.27c0-.08,0-.12,0-.17s-.09-.1-.23-.1-.13,0-.13,0a18.93,18.93,0,0,1,1.91-1.17,5.35,5.35,0,0,0,1.19-.78c.07-.09.07-.11.07-.17s-.12-.22-.55-.1l-.17,0s0,0,0,0l.21-.16c1.13-.79,2.41-1.75,2.79-2.09.14-.12.36-.35.86-.89l.79-.86a33,33,0,0,0,2.33-2.67,8.89,8.89,0,0,0,.58-.83,2.74,2.74,0,0,0,.39-.9.51.51,0,0,0,0-.32.55.55,0,0,0-.38-.4A1,1,0,0,0,649,501.26Z" transform="translate(-633.87 -501.23)"/></svg>